<svg xmlns="http://www.w3.org/2000/svg" viewBox="0 0 64 64">
  <rect width="64" height="64" rx="14" fill="#16141f"/>
  <g fill="#d4a054">
    <circle cx="32" cy="32" r="13"/>
    <g>
      <rect x="29" y="9" width="6" height="10" rx="2"/>
      <rect x="29" y="45" width="6" height="10" rx="2"/>
      <rect x="9" y="29" width="10" height="6" rx="2"/>
      <rect x="45" y="29" width="10" height="6" rx="2"/>
      <rect x="29" y="9" width="6" height="10" rx="2" transform="rotate(45 32 32)"/>
      <rect x="29" y="45" width="6" height="10" rx="2" transform="rotate(45 32 32)"/>
      <rect x="9" y="29" width="10" height="6" rx="2" transform="rotate(45 32 32)"/>
      <rect x="45" y="29" width="10" height="6" rx="2" transform="rotate(45 32 32)"/>
    </g>
  </g>
  <circle cx="32" cy="32" r="6.5" fill="#16141f"/>
  <path d="M14 52 Q 32 44 50 52" fill="none" stroke="#60a5fa" stroke-width="3.5" stroke-linecap="round"/>
</svg>
